<?xml version="1.0" standalone="no"?>
<!DOCTYPE svg PUBLIC "-//W3C//DTD SVG 20010904//EN"
 "http://www.w3.org/TR/2001/REC-SVG-20010904/DTD/svg10.dtd">
<svg version="1.0" xmlns="http://www.w3.org/2000/svg"
 width="512.000000pt" height="512.000000pt" viewBox="0 0 512.000000 512.000000"
 preserveAspectRatio="xMidYMid meet">
<metadata>
Created by potrace 1.11, written by Peter Selinger 2001-2013
</metadata>
<g transform="translate(0.000000,512.000000) scale(0.100000,-0.100000)"
fill="#000000" stroke="none">
<path d="M1015 5102 c-49 -24 -88 -61 -111 -110 -15 -31 -18 -67 -18 -224 -1
-102 -5 -190 -9 -194 -4 -5 -37 -9 -72 -9 -67 -1 -133 -24 -170 -60 -56 -54
-76 -104 -81 -205 -1 -30 -3 -57 -3 -60 -1 -3 -88 -6 -194 -6 -181 0 -197 -2
-237 -23 -88 -46 -117 -106 -120 -244 -2 -136 7 -181 44 -230 57 -74 83 -81
311 -87 l199 -5 1 -155 c1 -85 -1 -160 -2 -166 -3 -7 -69 -11 -193 -12 -204
-1 -244 -9 -297 -61 -50 -47 -58 -78 -60 -221 -2 -149 8 -189 64 -242 54 -52
86 -58 292 -58 142 0 190 -3 193 -12 2 -7 4 -83 3 -168 l0 -155 -205 -5 c-222
-5 -238 -9 -292 -67 -46 -49 -57 -91 -57 -223 0 -132 11 -174 57 -223 58 -62
85 -69 301 -70 l195 -2 0 -165 0 -165 -204 -5 c-222 -5 -240 -9 -290 -67 -51
-58 -55 -71 -57 -213 -3 -153 8 -192 68 -248 49 -46 93 -55 294 -57 99 -1 182
-3 185 -4 3 0 6 -33 7 -71 2 -91 15 -127 61 -176 55 -59 100 -77 202 -79 l65
-2 1 -194 c2 -212 8 -240 61 -293 52 -53 94 -65 233 -65 102 0 132 4 165 20
50 24 102 81 115 128 5 20 10 118 10 217 0 137 3 183 13 186 6 2 82 4 167 3
l155 0 1 -173 c2 -239 5 -253 62 -312 59 -61 97 -71 245 -69 125 1 171 15 219
66 52 54 58 86 58 292 0 142 3 190 13 193 10 3 259 3 310 -1 16 -1 17 -17 17
-191 0 -208 6 -239 58 -293 51 -54 76 -61 222 -64 158 -3 194 8 253 77 45 53
51 87 49 285 -1 83 1 159 3 170 4 19 12 20 167 20 l163 0 5 -205 c5 -189 7
-208 27 -240 55 -89 102 -109 265 -109 139 0 180 12 235 69 50 51 56 85 57
293 l1 187 25 0 c120 2 175 18 233 69 50 45 75 114 76 217 l1 51 173 -2 c94 0
190 3 211 8 58 12 113 55 141 111 23 46 24 57 22 185 -3 153 -12 179 -75 231
-54 44 -87 50 -289 50 l-183 0 -1 35 c-1 44 -1 80 0 204 l1 98 188 0 c167 0
194 3 234 20 100 45 127 102 127 272 0 136 -10 175 -57 225 -55 58 -87 66
-299 66 l-193 0 0 25 c-1 14 -1 63 -1 110 0 47 0 112 1 145 l0 60 193 0 c216
0 248 8 301 71 48 56 55 84 55 219 0 170 -23 220 -124 272 -35 19 -58 21 -232
21 l-193 0 -1 73 c0 41 -1 90 -1 109 0 19 1 62 1 94 l1 60 203 3 c203 3 204 3
245 31 23 15 54 46 69 69 26 39 28 49 32 171 4 148 -7 191 -63 247 -55 56 -97
65 -304 64 l-182 -1 -1 51 c-2 185 -86 276 -259 282 l-75 3 -1 194 c-1 210 -7
237 -62 293 -53 52 -77 59 -223 61 -120 2 -139 0 -175 -18 -110 -59 -122 -91
-124 -332 0 -105 -2 -193 -4 -196 -3 -5 -303 -7 -327 -2 -3 0 -6 88 -6 194 0
174 -2 197 -21 232 -49 95 -105 122 -259 124 -132 2 -180 -9 -230 -52 -65 -58
-73 -87 -73 -303 0 -145 -3 -193 -12 -196 -7 -2 -83 -4 -168 -3 l-155 1 -5
204 c-5 222 -9 238 -67 292 -49 46 -91 57 -225 57 -133 0 -172 -10 -221 -57
-62 -58 -69 -86 -69 -286 0 -99 -2 -188 -4 -196 -3 -13 -29 -15 -161 -14 -87
1 -161 2 -165 3 -5 1 -8 83 -8 184 0 202 -7 242 -52 293 -51 58 -92 70 -236
72 -106 2 -134 -1 -167 -16z"/>
</g>
</svg>
